<?xml version="1.0" encoding="UTF-8" standalone="no"?>
<svg
   xmlns:dc="http://purl.org/dc/elements/1.1/"
   xmlns:cc="http://creativecommons.org/ns#"
   xmlns:rdf="http://www.w3.org/1999/02/22-rdf-syntax-ns#"
   xmlns:svg="http://www.w3.org/2000/svg"
   xmlns="http://www.w3.org/2000/svg"
   xmlns:sodipodi="http://sodipodi.sourceforge.net/DTD/sodipodi-0.dtd"
   xmlns:inkscape="http://www.inkscape.org/namespaces/inkscape"
   height="512"
   viewBox="0 0 383.99999 383.99999"
   width="512"
   version="1.1"
   id="svg22"
   sodipodi:docname="browser_mod.svg"
   inkscape:version="0.92.2 5c3e80d, 2017-08-06">
  <metadata
     id="metadata28">
    <rdf:RDF>
      <cc:Work
         rdf:about="">
        <dc:format>image/svg+xml</dc:format>
        <dc:type
           rdf:resource="http://purl.org/dc/dcmitype/StillImage" />
        <dc:title></dc:title>
      </cc:Work>
    </rdf:RDF>
  </metadata>
  <defs
     id="defs26" />
  <sodipodi:namedview
     pagecolor="#ffffff"
     bordercolor="#666666"
     borderopacity="1"
     objecttolerance="10"
     gridtolerance="10"
     guidetolerance="10"
     inkscape:pageopacity="0"
     inkscape:pageshadow="2"
     inkscape:window-width="1878"
     inkscape:window-height="1035"
     id="namedview24"
     showgrid="false"
     units="px"
     inkscape:zoom="0.34570313"
     inkscape:cx="341.33333"
     inkscape:cy="341.33333"
     inkscape:window-x="42"
     inkscape:window-y="1"
     inkscape:window-maximized="1"
     inkscape:current-layer="svg22" />
  <circle
     style="opacity:1;fill:#64dbc3;fill-opacity:1;fill-rule:nonzero;stroke:none;stroke-width:0.57622701;stroke-opacity:1"
     id="path847"
     cx="192"
     cy="192"
     r="192" />
  <g
     id="g845"
     transform="matrix(0.51271187,0,0,0.51271187,60.745756,60.745756)">
    <path
       id="path2"
       d="M 483.30859,512 H 28.691406 C 12.84375,512 0,499.15625 0,483.30859 V 97.101562 H 512 V 483.30859 C 512,499.15625 499.15625,512 483.30859,512 Z m 0,0"
       inkscape:connector-curvature="0"
       style="fill:#e7eced" />
    <path
       id="path4"
       d="M 512,105.92969 H 0 V 28.691406 C 0,12.84375 12.84375,0 28.691406,0 H 483.30859 C 499.15625,0 512,12.84375 512,28.691406 Z m 0,0"
       inkscape:connector-curvature="0"
       style="fill:#556080" />
    <path
       id="path6"
       d="m 35.308594,35.308594 h 35.3125 v 35.3125 h -35.3125 z m 0,0"
       inkscape:connector-curvature="0"
       style="fill:#dd352e" />
    <path
       id="path8"
       d="m 105.92969,35.308594 h 35.3125 v 35.3125 h -35.3125 z m 0,0"
       inkscape:connector-curvature="0"
       style="fill:#ebba16" />
    <path
       id="path10"
       d="m 176.55078,35.308594 h 35.3125 v 35.3125 h -35.3125 z m 0,0"
       inkscape:connector-curvature="0"
       style="fill:#23a24d" />
    <path
       id="path12"
       d="M 61.792969,353.10156 H 450.20703 v 97.10547 H 61.792969 Z m 0,0"
       inkscape:connector-curvature="0"
       style="fill:#ffffff" />
    <path
       id="path14"
       d="M 406.07031,414.89844 H 97.101562 c -4.871093,0 -8.824218,-3.94922 -8.824218,-8.82813 0,-4.88281 3.953125,-8.82812 8.824218,-8.82812 H 406.07031 c 4.8711,0 8.82813,3.94531 8.82813,8.82812 0,4.87891 -3.95703,8.82813 -8.82813,8.82813 z m 0,0"
       inkscape:connector-curvature="0"
       style="fill:#7383bf" />
    <path
       id="path16"
       d="m 220.69141,432.55078 c -4.875,0 -8.82813,-3.94531 -8.82813,-8.82812 v -35.3086 c 0,-4.88281 3.95313,-8.82812 8.82813,-8.82812 4.87109,0 8.82421,3.94531 8.82421,8.82812 v 35.3086 c 0,4.88281 -3.95312,8.82812 -8.82421,8.82812 z m 0,0"
       inkscape:connector-curvature="0"
       style="fill:#556080" />
    <path
       id="path18"
       d="M 61.792969,167.72266 H 450.20703 V 361.92969 H 61.792969 Z m 0,0"
       inkscape:connector-curvature="0"
       style="fill:#dd352e" />
    <path
       id="path20"
       d="m 291.30859,261.91406 -26.48047,19.11328 -26.48437,19.10938 v -76.44531 l 26.48437,19.11328 z m 0,0"
       inkscape:connector-curvature="0"
       style="fill:#ffffff" />
  </g>
</svg>
