<?xml version="1.0"?>
<svg xmlns="http://www.w3.org/2000/svg" xmlns:xlink="http://www.w3.org/1999/xlink" version="1.1" id="Capa_1" x="0px" y="0px" viewBox="0 0 491.52 491.52" style="enable-background:new 0 0 491.52 491.52;" xml:space="preserve" width="512px" height="512px" class=""><g><circle style="fill:#44C4A1" cx="245.76" cy="245.76" r="245.76" data-original="#E05B49" class="active-path" data-old_color="#E05B49"/><path style="fill:#64798A;" d="M379.718,104.96H111.804c-3.78,0-6.844,3.064-6.844,6.843v40.031h281.6v-40.031  C386.56,108.024,383.496,104.96,379.718,104.96z" data-original="#64798A" class=""/><circle style="fill:#FCD462;" cx="314.266" cy="128.41" r="7.731" data-original="#FCD462" class=""/><circle style="fill:#44C4A1;" cx="341.837" cy="128.41" r="7.731" data-original="#44C4A1" class=""/><circle style="fill:#E56353;" cx="369.408" cy="128.41" r="7.731" data-original="#E56353" class=""/><path style="fill:#FFFFFF;" d="M165.224,151.834c-1.441,0-2.721-0.919-3.183-2.284l-3.767-11.14  c-0.462-1.365-1.742-2.284-3.184-2.284h-34.81c-1.441,0-2.722,0.919-3.184,2.284l-3.766,11.14c-0.462,1.365-1.743,2.284-3.184,2.284  h-5.186v227.883c0,3.779,3.064,6.843,6.842,6.843h267.915c3.779,0,6.842-3.064,6.842-6.843V151.834  C386.56,151.834,165.224,151.834,165.224,151.834z" data-original="#FFFFFF" class=""/><path style="fill:#EBF0F3;" d="M166.487,146.714h47.71l-2.808-8.304c-0.462-1.365-1.742-2.284-3.184-2.284h-45.422  c0.099,0.226,0.259,0.411,0.339,0.648L166.487,146.714z" data-original="#EBF0F3"/><path style="fill:#DC8744;" d="M188.915,316.347c-1.124,0-2.248-0.429-3.106-1.287l-38.14-38.138  c-0.823-0.824-1.287-1.941-1.287-3.106c0-1.165,0.463-2.282,1.287-3.106l38.14-38.138c1.716-1.716,4.496-1.716,6.212,0  c1.716,1.716,1.716,4.496,0,6.212l-35.034,35.032l35.034,35.032c1.716,1.716,1.716,4.495,0,6.212  C191.163,315.918,190.038,316.347,188.915,316.347z" data-original="#DC8744" class=""/><path style="fill:#E56353;" d="M302.605,316.347c-1.124,0-2.248-0.429-3.106-1.287c-1.716-1.716-1.716-4.496,0-6.212l35.034-35.032  L299.5,238.785c-1.716-1.716-1.716-4.495,0-6.212c1.716-1.716,4.495-1.716,6.211,0l38.14,38.138  c0.823,0.824,1.287,1.941,1.287,3.106c0,1.165-0.463,2.282-1.287,3.106l-38.14,38.138  C304.853,315.918,303.729,316.347,302.605,316.347z" data-original="#E56353" class=""/><path style="fill:#64798A;" d="M272.38,350.061c-1.712,0-3.337-1.008-4.045-2.685l-60.7-143.697  c-0.944-2.235,0.103-4.811,2.338-5.757c2.235-0.933,4.809,0.103,5.752,2.338l60.7,143.697c0.944,2.235-0.103,4.811-2.338,5.757  C273.529,349.947,272.95,350.061,272.38,350.061z" data-original="#64798A" class=""/></g> </svg>
