<?xml version="1.0" encoding="UTF-8" standalone="no"?>
<svg
   xmlns:dc="http://purl.org/dc/elements/1.1/"
   xmlns:cc="http://creativecommons.org/ns#"
   xmlns:rdf="http://www.w3.org/1999/02/22-rdf-syntax-ns#"
   xmlns:svg="http://www.w3.org/2000/svg"
   xmlns="http://www.w3.org/2000/svg"
   xmlns:sodipodi="http://sodipodi.sourceforge.net/DTD/sodipodi-0.dtd"
   xmlns:inkscape="http://www.inkscape.org/namespaces/inkscape"
   version="1.1"
   id="Capa_1"
   x="0px"
   y="0px"
   viewBox="0 0 297.04 297.04"
   style="enable-background:new 0 0 297.04 297.04;"
   xml:space="preserve"
   width="512px"
   height="512px"
   class=""
   sodipodi:docname="knee_mod.svg"
   inkscape:version="0.92.2 5c3e80d, 2017-08-06"><metadata
     id="metadata17"><rdf:RDF><cc:Work
         rdf:about=""><dc:format>image/svg+xml</dc:format><dc:type
           rdf:resource="http://purl.org/dc/dcmitype/StillImage" /></cc:Work></rdf:RDF></metadata><defs
     id="defs15" /><sodipodi:namedview
     pagecolor="#ffffff"
     bordercolor="#666666"
     borderopacity="1"
     objecttolerance="10"
     gridtolerance="10"
     guidetolerance="10"
     inkscape:pageopacity="0"
     inkscape:pageshadow="2"
     inkscape:window-width="1878"
     inkscape:window-height="1035"
     id="namedview13"
     showgrid="false"
     inkscape:zoom="0.921875"
     inkscape:cx="-110.2212"
     inkscape:cy="229.61618"
     inkscape:window-x="42"
     inkscape:window-y="1"
     inkscape:window-maximized="1"
     inkscape:current-layer="Capa_1" /><circle
     style="opacity:1;fill:#068fe3;fill-opacity:1;fill-rule:nonzero;stroke:none;stroke-width:1.37281168;stroke-opacity:1"
     id="path4515"
     cx="148.52"
     cy="148.52"
     r="148.52" /><g
     transform="matrix(0.8146496,-0.41331033,0.41331033,0.8146496,-7.7117444,91.2078)"
     id="g10"><g
       id="g8"><path
         d="m 79.239,137.926 c 8.957,0 17.604,2.788 24.822,7.729 7.219,-4.941 15.866,-7.729 24.822,-7.729 0.158,0 0.314,0.01 0.472,0.012 -3.3,-2.586 -6.255,-5.65 -8.732,-9.148 -5.172,-7.302 -7.895,-15.96 -8.04,-24.699 -8.22,-3.033 -15.469,-8.493 -20.654,-15.814 -3.022,-4.266 -5.217,-8.944 -6.553,-13.842 -20.468,7.83 -35.056,28.146 -35.056,51.981 0,6.923 1.241,13.544 3.489,19.655 7.182,-5.12 15.956,-8.145 25.43,-8.145 z"
         data-original="#000000"
         class="active-path"
         data-old_color="#000000"
         id="path2"
         inkscape:connector-curvature="0"
         style="fill:#ffd400" /><path
         d="m 128.883,152.926 c -10.546,0 -19.77,5.647 -24.822,14.08 -5.052,-8.433 -14.277,-14.08 -24.822,-14.08 -15.972,0 -28.919,12.947 -28.919,28.919 0,6.418 2.091,12.347 5.628,17.143 14.943,20.261 23.05,44.792 23.05,69.967 v 18.223 c 0,5.446 4.415,9.861 9.861,9.861 h 30.405 c 5.446,0 9.861,-4.415 9.861,-9.861 v -18.223 c 0,-25.256 8.059,-49.642 23.05,-69.967 3.538,-4.796 5.629,-10.725 5.629,-17.143 -0.002,-15.971 -12.949,-28.919 -28.921,-28.919 z"
         data-original="#000000"
         class="active-path"
         data-old_color="#000000"
         id="path4"
         inkscape:connector-curvature="0"
         style="fill:#ffd400" /><path
         d="M 244.906,28.974 227.332,4.162 C 225.41,1.449 222.367,0 219.277,0 c -1.971,0 -3.961,0.589 -5.691,1.815 l -14.871,10.533 c -19.983,14.154 -43.681,21.653 -68.121,21.653 -0.766,0 -1.531,-0.007 -2.298,-0.022 -0.186,-0.003 -0.372,-0.005 -0.557,-0.005 -5.778,0 -11.611,1.727 -16.685,5.321 -13.034,9.231 -16.116,27.281 -6.884,40.314 5.636,7.958 14.56,12.203 23.622,12.203 0.738,0 1.476,-0.028 2.214,-0.085 -3.961,8.997 -3.238,19.788 2.857,28.394 5.637,7.958 14.561,12.206 23.624,12.206 5.78,0 11.615,-1.727 16.69,-5.322 5.237,-3.709 8.867,-8.842 10.736,-14.501 7.897,-23.905 23.23,-44.699 43.774,-59.25 l 14.871,-10.533 c 4.445,-3.149 5.495,-9.303 2.348,-13.747 z M 130.98,56.751 c -4.49,0 -8.143,3.652 -8.143,8.142 0,4.143 -3.357,7.5 -7.5,7.5 -4.143,0 -7.5,-3.357 -7.5,-7.5 0,-12.761 10.382,-23.142 23.143,-23.142 4.143,0 7.5,3.357 7.5,7.5 0,4.143 -3.357,7.5 -7.5,7.5 z"
         data-original="#000000"
         class="active-path"
         data-old_color="#000000"
         id="path6"
         inkscape:connector-curvature="0"
         style="fill:#ffd400" /></g></g></svg>