<?xml version="1.0" encoding="UTF-8" standalone="no"?>
<svg
   xmlns:dc="http://purl.org/dc/elements/1.1/"
   xmlns:cc="http://creativecommons.org/ns#"
   xmlns:rdf="http://www.w3.org/1999/02/22-rdf-syntax-ns#"
   xmlns:svg="http://www.w3.org/2000/svg"
   xmlns="http://www.w3.org/2000/svg"
   xmlns:sodipodi="http://sodipodi.sourceforge.net/DTD/sodipodi-0.dtd"
   xmlns:inkscape="http://www.inkscape.org/namespaces/inkscape"
   height="512px"
   viewBox="0 0 496 496.01269"
   width="512px"
   class=""
   version="1.1"
   id="svg48"
   sodipodi:docname="meeting.svg"
   inkscape:version="0.92.2 5c3e80d, 2017-08-06">
  <metadata
     id="metadata54">
    <rdf:RDF>
      <cc:Work
         rdf:about="">
        <dc:format>image/svg+xml</dc:format>
        <dc:type
           rdf:resource="http://purl.org/dc/dcmitype/StillImage" />
        <dc:title></dc:title>
      </cc:Work>
    </rdf:RDF>
  </metadata>
  <defs
     id="defs52" />
  <sodipodi:namedview
     pagecolor="#ffffff"
     bordercolor="#666666"
     borderopacity="1"
     objecttolerance="10"
     gridtolerance="10"
     guidetolerance="10"
     inkscape:pageopacity="0"
     inkscape:pageshadow="2"
     inkscape:window-width="1878"
     inkscape:window-height="1035"
     id="namedview50"
     showgrid="false"
     inkscape:zoom="0.4609375"
     inkscape:cx="256"
     inkscape:cy="256"
     inkscape:window-x="42"
     inkscape:window-y="1"
     inkscape:window-maximized="1"
     inkscape:current-layer="svg48" />
  <circle
     style="opacity:1;fill:#fcd165;fill-opacity:1;fill-rule:nonzero;stroke:none;stroke-width:0.8008098;stroke-opacity:1"
     id="path864"
     cx="248"
     cy="248.00635"
     r="248.00635" />
  <g
     id="g46"
     transform="matrix(0.69490599,0,0,0.69490599,75.657886,75.666068)">
    <path
       d="m 472.00781,200.01172 v -31.01563 c 0,-14.67968 -9.99219,-27.48047 -24.24219,-31.04687 l -39.75781,-9.9375 -0.0156,-14.46484 c 14.34375,-8.30079 24.01562,-23.773442 24.01562,-41.535161 V 58.027344 C 432.00781,31.75 411.75,8.828125 385.48828,8.035156 358.30078,7.21875 336.00781,29.011719 336.00781,56.011719 v 16 c 0,17.761719 9.66407,33.226561 24,41.527341 v 14.47266 l -39.76172,9.94531 C 306,141.51562 296.00781,154.31641 296.00781,168.99609 v 31.01563 z m 0,0"
       data-original="#AAB2BD"
       class=""
       style="fill:#5abbc8"
       data-old_color="#aab2bd"
       id="path2"
       inkscape:connector-curvature="0" />
    <path
       d="m 296.00781,184.01172 h 176 v 32 h -176 z m 0,0"
       data-original="#969FAA"
       class=""
       id="path4"
       inkscape:connector-curvature="0"
       style="fill:#969faa" />
    <path
       d="m 472.00781,232.01172 v 144 h -176 v -144 z m 0,0"
       data-original="#DFB28B"
       class=""
       id="path6"
       inkscape:connector-curvature="0"
       style="fill:#dfb28b" />
    <path
       d="m 96.007812,432.01172 v -12.4375 c 9.527348,-5.54688 15.999998,-15.7461 15.999998,-27.5625 v -14.33594 c 0,-16.87891 -12.32031,-32.07031 -29.136716,-33.53516 -18.960938,-1.64843 -34.863282,13.25782 -34.863282,31.8711 v 16 c 0,11.8164 6.46875,22.01562 16,27.5625 v 12.4375 l -32.792968,9.36719 C 17.476562,445.30859 8.007812,457.85937 8.007812,472.14844 v 15.86328 H 152.00781 v -15.86328 c 0,-14.28907 -9.47265,-26.83985 -23.21094,-30.76953 z m 0,0"
       data-original="#AAB2BD"
       class=""
       style="fill:#5abbc8"
       data-old_color="#aab2bd"
       id="path8"
       inkscape:connector-curvature="0" />
    <path
       d="m 240.00781,432.01172 v -12.4375 c 9.52735,-5.54688 16,-15.7461 16,-27.5625 v -14.33594 c 0,-16.87891 -12.32031,-32.07031 -29.13672,-33.53516 -18.96093,-1.64843 -34.86328,13.25782 -34.86328,31.8711 v 16 c 0,11.8164 6.46875,22.01562 16,27.5625 v 12.4375 l -32.79297,9.36719 c -13.73828,3.92968 -23.20703,16.48046 -23.20703,30.76953 v 15.86328 h 144 v -15.86328 c 0,-14.28907 -9.47265,-26.83985 -23.21094,-30.76953 z m 0,0"
       data-original="#AAB2BD"
       class=""
       style="fill:#5abbc8"
       data-old_color="#aab2bd"
       id="path10"
       inkscape:connector-curvature="0" />
    <path
       d="m 372.25391,328.19531 c -1.42188,-0.11719 -2.83985,-0.18359 -4.2461,-0.18359 -26.47265,0 -48,21.52734 -48,48 h 95.91797 c -0.80859,-24.87891 -19.67187,-45.72656 -43.67187,-47.81641 z m 0,0"
       data-original="#CF9E76"
       class=""
       id="path12"
       inkscape:connector-curvature="0"
       style="fill:#cf9e76" />
    <path
       d="m 384.00781,432.01172 v -12.4375 c 9.52735,-5.54688 16,-15.7461 16,-27.5625 v -14.33594 c 0,-16.87891 -12.32031,-32.07031 -29.13672,-33.53516 -18.96093,-1.64843 -34.86328,13.25782 -34.86328,31.8711 v 16 c 0,11.8164 6.46875,22.01562 16,27.5625 v 12.4375 l -32.79297,9.36719 c -13.73828,3.92968 -23.20703,16.48046 -23.20703,30.76953 v 15.86328 h 144 v -15.86328 c 0,-14.28907 -9.47265,-26.83985 -23.21093,-30.76953 z m 0,0"
       data-original="#AAB2BD"
       class=""
       style="fill:#5abbc8"
       data-old_color="#aab2bd"
       id="path14"
       inkscape:connector-curvature="0" />
    <path
       d="M 8.007812,8.011719 H 264.00781 v 32 H 8.007812 Z m 0,0"
       data-original="#B27946"
       class=""
       id="path16"
       inkscape:connector-curvature="0"
       style="fill:#b27946" />
    <path
       d="M 24.007812,40.011719 H 248.00781 V 200.01172 H 24.007812 Z m 0,0"
       data-original="#E6E9ED"
       id="path18"
       inkscape:connector-curvature="0"
       style="fill:#e6e9ed" />
    <path
       d="m 160.00781,288.01172 c 0,13.2539 -10.74609,24 -24,24 -13.25781,0 -24,-10.7461 -24,-24 0,-13.25391 10.74219,-24 24,-24 13.25391,0 24,10.74609 24,24 z m 0,0"
       data-original="#FCD770"
       class="active-path"
       style="fill:#ff826e"
       data-old_color="#fcd770"
       id="path20"
       inkscape:connector-curvature="0" />
    <g
       id="g28"
       style="fill:#ff826e">
      <path
         d="m 184.00781,72.011719 h 32 v 96.000001 h -32 z m 0,0"
         data-original="#FF826E"
         id="path22"
         inkscape:connector-curvature="0" />
      <path
         d="m 120.00781,88.011719 h 32 v 80.000001 h -32 z m 0,0"
         data-original="#FF826E"
         id="path24"
         inkscape:connector-curvature="0" />
      <path
         d="m 56.007812,120.01172 h 32 v 48 h -32 z m 0,0"
         data-original="#FF826E"
         id="path26"
         inkscape:connector-curvature="0" />
    </g>
    <path
       d="m 296.00781,232.01172 h 176 v 16 h -176 z m 0,0"
       data-original="#CF9E76"
       class=""
       id="path30"
       inkscape:connector-curvature="0"
       style="fill:#cf9e76" />
    <path
       d="m 280.00781,200.01172 h 208 v 32 h -208 z m 0,0"
       data-original="#B27946"
       class=""
       id="path32"
       inkscape:connector-curvature="0"
       style="fill:#b27946" />
    <path
       d="M 24.007812,40.011719 H 248.00781 v 16 H 24.007812 Z m 0,0"
       data-original="#CCD1D9"
       id="path34"
       inkscape:connector-curvature="0"
       style="fill:#ccd1d9" />
    <path
       d="m 496.00781,192.01172 h -16 v -23.01563 c 0,-18.39062 -12.46484,-34.34375 -30.30469,-38.80859 L 416,121.76563 v -3.83985 c 14.91016,-10.41797 24.00781,-27.601561 24.00781,-45.914061 V 58.019531 c 0,-31.078125 -24.35156,-57.085937 -54.28125,-57.9843748 -15.5039,-0.5507812 -29.76172,5.1445318 -40.71875,15.7851558 -10.96094,10.640626 -17,24.914063 -17,40.191407 v 16 c 0,18.304687 9.08594,35.488281 24,45.906251 v 3.84766 l -33.69922,8.42187 c -17.83984,4.46484 -30.30078,20.41797 -30.30078,38.80859 v 23.01563 h -16 v 48 h 16 v 144 h 40 v 8 c 0,12.5039 6.03125,24.32031 16,31.83203 v 2.13672 l -26.99219,7.70312 c -8.60156,2.46485 -15.89062,7.70703 -21.00781,14.5625 -5.1289,-6.85547 -12.41015,-12.10547 -21.01562,-14.5625 l -26.98438,-7.70312 v -2.13672 c 9.96485,-7.51172 16,-19.32813 16,-31.83203 v -14.34375 c 0,-21.50391 -16.00781,-39.72656 -36.4414,-41.50391 -11.23047,-0.97656 -22.35157,2.8086 -30.58594,10.35156 -8.2461,7.57032 -12.97266,18.32032 -12.97266,29.4961 v 16 c 0,12.5039 6.03125,24.32031 16,31.83203 v 2.13672 l -26.99219,7.70312 c -8.60156,2.46485 -15.89062,7.70703 -21.00781,14.5625 -5.1289,-6.85547 -12.41015,-12.10547 -21.01562,-14.5625 l -26.98438,-7.70312 v -2.13672 c 9.96485,-7.51172 16,-19.32813 16,-31.83203 v -14.34375 c 0,-21.50391 -16.00781,-39.72656 -36.441404,-41.50391 -11.238281,-0.97656 -22.351562,2.8086 -30.585937,10.35156 -8.246094,7.57032 -12.972657,18.32032 -12.972657,29.4961 v 16 c 0,12.5039 6.03125,24.32031 16,31.83203 v 2.13672 l -26.992187,7.70312 C 11.933594,438.57422 0.0078125,454.39062 0.0078125,472.15625 v 23.85547 H 448.00781 v -23.85547 c 0,-17.76563 -11.92969,-33.57422 -29.01562,-38.47266 l -26.98438,-7.70312 v -2.13672 c 9.96485,-7.51172 16,-19.32813 16,-31.83203 v -8 h 72 v -144 h 16 z m -192,-23.01563 c 0,-11.03125 7.48047,-20.60547 18.17578,-23.28125 l 45.82422,-11.45312 v -25.32813 l -3.99218,-2.3125 C 351.67188,99.46875 344.00781,86.203125 344.00781,72.011719 v -16 c 0,-10.910157 4.3086,-21.109375 12.15235,-28.703125 7.83203,-7.601563 18.1914,-11.550782 29.08593,-11.273438 21.36719,0.640625 38.76172,19.472656 38.76172,41.984375 v 13.992188 c 0,14.199219 -7.67187,27.464843 -20.02734,34.609371 l -4,2.32032 0.0352,25.32031 45.8164,11.45312 c 10.69531,2.67578 18.17578,12.25 18.17578,23.28125 v 23.01563 h -160 z m -160,311.01563 H 16.007812 v -7.85547 c 0,-10.65625 7.160157,-20.15234 17.40625,-23.07813 l 38.59375,-11.03515 v -23.07031 l -3.976562,-2.3125 C 60.503906,408.27734 56.007812,400.55859 56.007812,392.01172 v -16 c 0,-6.71094 2.832032,-13.16016 7.789063,-17.69531 5.007813,-4.58985 11.585937,-6.80079 18.386719,-6.20704 12.238281,1.0625 21.824216,12.28907 21.824216,25.5586 v 14.34375 c 0,8.54687 -4.496091,16.26562 -12.027341,20.64844 l -3.972657,2.3125 v 23.07031 l 38.582028,11.03515 c 10.25782,2.92579 17.41797,12.42188 17.41797,23.07813 z m 144,0 h -128 v -7.85547 c 0,-10.65625 7.16016,-20.15234 17.40625,-23.07813 l 38.59375,-11.03515 v -23.07031 l -3.97656,-2.3125 c -7.52734,-4.38282 -12.02344,-12.10157 -12.02344,-20.64844 v -16 c 0,-6.71094 2.83203,-13.16016 7.78906,-17.69531 5.01563,-4.58985 11.55469,-6.80079 18.38672,-6.20704 12.23828,1.0625 21.82422,12.28907 21.82422,25.5586 v 14.34375 c 0,8.54687 -4.49609,16.26562 -12.02734,20.64844 l -3.97266,2.3125 v 23.07031 l 38.58203,11.03515 c 10.25782,2.92579 17.41797,12.42188 17.41797,23.07813 z m 104,-88 c 0,8.54687 -4.49609,16.26562 -12.02734,20.64844 l -3.97266,2.3125 v 23.07031 l 38.58203,11.03515 c 10.25782,2.92579 17.41797,12.42188 17.41797,23.07813 v 7.85547 h -128 v -7.85547 c 0,-10.65625 7.16016,-20.15234 17.40625,-23.07813 l 38.59375,-11.03515 v -23.07031 l -3.97656,-2.3125 c -7.52734,-4.38282 -12.02344,-12.10157 -12.02344,-20.64844 v -16 c 0,-6.71094 2.83203,-13.16016 7.78906,-17.69531 5.01563,-4.58985 11.5625,-6.80079 18.38672,-6.20704 12.23828,1.0625 21.82422,12.28907 21.82422,25.5586 z m 72,-24 h -57.22656 c -3.94922,-17.04688 -17.94141,-30.34375 -35.20703,-31.83985 -11.25781,-0.97656 -22.35156,2.8086 -30.58203,10.35157 -6.26563,5.73047 -10.46485,13.29687 -12.14453,21.48828 h -24.83985 v -128 h 160 z m 16,-144 h -192 v -16 h 192 z m 0,0"
       data-original="#000000"
       class=""
       id="path36"
       inkscape:connector-curvature="0" />
    <path
       d="M 16.007812,208.01172 H 128.00781 v 49.13672 c -13.76953,3.57812 -24,15.99218 -24,30.86328 0,17.64844 14.35157,32 32,32 17.64844,0 32,-14.35156 32,-32 0,-14.8711 -10.23437,-27.28516 -24,-30.86328 v -49.13672 h 112 V 48.011719 h 16 V 0.0117188 H 0.0078125 V 48.011719 H 16.007812 Z m 135.999998,80 c 0,8.82422 -7.17578,16 -16,16 -8.82422,0 -16,-7.17578 -16,-16 0,-8.82422 7.17578,-16 16,-16 8.82422,0 16,7.17578 16,16 z m 88,-96 H 32.007812 V 48.011719 H 240.00781 Z M 16.007812,16.011719 H 256.00781 v 16 H 16.007812 Z m 0,0"
       data-original="#000000"
       class=""
       id="path38"
       inkscape:connector-curvature="0" />
    <path
       d="m 224.00781,64.011719 h -48 V 176.01172 h 48 z m -16,96.000001 h -16 V 80.011719 h 16 z m 0,0"
       data-original="#000000"
       class=""
       id="path40"
       inkscape:connector-curvature="0" />
    <path
       d="m 160.00781,80.011719 h -48 v 96.000001 h 48 z m -16,80.000001 h -16 V 96.011719 h 16 z m 0,0"
       data-original="#000000"
       class=""
       id="path42"
       inkscape:connector-curvature="0" />
    <path
       d="m 96.007812,112.01172 h -48 v 64 h 48 z m -16,48 h -16 v -32 h 16 z m 0,0"
       data-original="#000000"
       class=""
       id="path44"
       inkscape:connector-curvature="0" />
  </g>
</svg>
