<?xml version="1.0" encoding="UTF-8" standalone="no"?>
<!-- Created with Inkscape (http://www.inkscape.org/) -->

<svg
   xmlns:dc="http://purl.org/dc/elements/1.1/"
   xmlns:cc="http://creativecommons.org/ns#"
   xmlns:rdf="http://www.w3.org/1999/02/22-rdf-syntax-ns#"
   xmlns:svg="http://www.w3.org/2000/svg"
   xmlns="http://www.w3.org/2000/svg"
   xmlns:sodipodi="http://sodipodi.sourceforge.net/DTD/sodipodi-0.dtd"
   xmlns:inkscape="http://www.inkscape.org/namespaces/inkscape"
   width="700"
   height="200"
   viewBox="0 0 185.20833 52.916667"
   version="1.1"
   id="svg1068"
   inkscape:version="0.92.2 5c3e80d, 2017-08-06"
   sodipodi:docname="Kubik.svg">
  <defs
     id="defs1062" />
  <sodipodi:namedview
     id="base"
     pagecolor="#ffffff"
     bordercolor="#666666"
     borderopacity="1.0"
     inkscape:pageopacity="0.0"
     inkscape:pageshadow="2"
     inkscape:zoom="0.98142857"
     inkscape:cx="441.94482"
     inkscape:cy="100"
     inkscape:document-units="mm"
     inkscape:current-layer="layer1"
     showgrid="false"
     inkscape:window-width="1878"
     inkscape:window-height="1035"
     inkscape:window-x="61"
     inkscape:window-y="0"
     inkscape:window-maximized="0"
     units="px" />
  <metadata
     id="metadata1065">
    <rdf:RDF>
      <cc:Work
         rdf:about="">
        <dc:format>image/svg+xml</dc:format>
        <dc:type
           rdf:resource="http://purl.org/dc/dcmitype/StillImage" />
        <dc:title />
      </cc:Work>
    </rdf:RDF>
  </metadata>
  <g
     inkscape:label="Layer 1"
     inkscape:groupmode="layer"
     id="layer1"
     transform="translate(0,-244.08333)">
    <text
       xml:space="preserve"
       style="font-style:normal;font-weight:normal;font-size:10.58333302px;line-height:1.25;font-family:sans-serif;letter-spacing:0px;word-spacing:0px;fill:#000000;fill-opacity:1;stroke:none;stroke-width:0.26458332"
       x="35.456982"
       y="266.30875"
       id="text853"><tspan
         sodipodi:role="line"
         id="tspan851"
         x="35.456982"
         y="275.67252"
         style="stroke-width:0.26458332" /></text>
    <text
       xml:space="preserve"
       style="font-style:normal;font-weight:normal;font-size:10.58333302px;line-height:1.25;font-family:sans-serif;letter-spacing:0px;word-spacing:0px;fill:#000000;fill-opacity:1;stroke:none;stroke-width:0.26458332"
       x="36.664242"
       y="277.05032"
       id="text898"><tspan
         sodipodi:role="line"
         id="tspan896"
         x="36.664242"
         y="286.41409"
         style="stroke-width:0.26458332" /></text>
    <g
       id="g975"
       transform="translate(15.739337)">
      <g
         transform="matrix(0.02476488,0,0,0.02476488,6.3524167,264.20185)"
         id="g1033">
        <g
           id="g940">
          <path
             inkscape:connector-curvature="0"
             style="fill:#fedb41"
             d="m 46,212 c -3.839,0 -7.678,-1.464 -10.606,-4.393 -5.858,-5.858 -5.858,-15.355 0,-21.213 l 60,-60 c 5.857,-5.858 15.355,-5.858 21.213,0 5.858,5.858 5.858,15.355 0,21.213 l -60,60 C 53.678,210.536 49.839,212 46,212 Z"
             id="path936" />
          <path
             inkscape:connector-curvature="0"
             style="fill:#fedb41"
             d="m 466,212 c -3.839,0 -7.678,-1.464 -10.606,-4.393 l -60,-60 c -5.858,-5.858 -5.858,-15.355 0,-21.213 5.857,-5.858 15.355,-5.858 21.213,0 l 60,60 c 5.858,5.858 5.858,15.355 0,21.213 C 473.678,210.536 469.839,212 466,212 Z"
             id="path938" />
        </g>
        <path
           inkscape:connector-curvature="0"
           style="fill:#a4d9f5"
           d="m 406,272 c -8.284,0 -15,-6.716 -15,-15 V 30 H 121 v 227 c 0,8.284 -6.716,15 -15,15 -8.284,0 -15,-6.716 -15,-15 V 15 C 91,6.716 97.716,0 106,0 h 300 c 8.284,0 15,6.716 15,15 v 242 c 0,8.284 -6.716,15 -15,15 z"
           id="path942" />
        <g
           id="g948">
          <path
             inkscape:connector-curvature="0"
             style="fill:#1689fc"
             d="m 255.853,270.027 c -19.842,0 -39.18,-5.55 -56.365,-16.56 C 169.126,234.015 151,200.943 151,165 151,107.103 198.103,60 256,60 c 57.897,0 105,47.103 105,105 0,24.813 -20.187,45 -45,45 -23.191,0 -42.341,-17.635 -44.746,-40.199 -0.935,-3.308 -0.709,-6.854 0.668,-10.038 l 0.312,-0.72 c 2.824,-6.527 9.845,-10.175 16.808,-8.732 6.964,1.443 11.958,7.577 11.958,14.689 0,0.076 10e-4,0.152 0.002,0.228 0.006,0.139 0.01,0.281 0.012,0.42 0.34,7.972 6.932,14.352 14.986,14.352 8.271,0 15,-6.729 15,-15 0,-41.355 -33.645,-75 -75,-75 -41.355,0 -75,33.645 -75,75 0,25.669 12.961,49.298 34.671,63.207 22.249,14.255 49.843,15.608 75.703,3.709 7.527,-3.462 16.435,-0.167 19.896,7.358 3.463,7.526 0.168,16.434 -7.357,19.896 -15.766,7.254 -32.077,10.857 -48.06,10.857 z"
             id="path944" />
          <path
             inkscape:connector-curvature="0"
             style="fill:#1689fc"
             d="m 256,210 c -24.813,0 -45,-20.187 -45,-45 0,-24.813 20.187,-45 45,-45 24.813,0 45,20.187 45,45 0,24.813 -20.187,45 -45,45 z m 0,-60 c -8.271,0 -15,6.729 -15,15 0,8.271 6.729,15 15,15 8.271,0 15,-6.729 15,-15 0,-8.271 -6.729,-15 -15,-15 z"
             id="path946" />
        </g>
        <g
           id="g954">
          <path
             inkscape:connector-curvature="0"
             style="fill:#fedb41"
             d="m 196,362 c -3.839,0 -7.678,-1.464 -10.606,-4.394 l -150,-150 c -5.858,-5.858 -5.858,-15.355 0,-21.213 5.857,-5.858 15.355,-5.858 21.213,0 l 150,150 c 5.858,5.858 5.858,15.355 0,21.213 C 203.678,360.536 199.839,362 196,362 Z"
             id="path950" />
          <path
             inkscape:connector-curvature="0"
             style="fill:#fedb41"
             d="m 316,362 c -3.839,0 -7.678,-1.464 -10.606,-4.394 -5.858,-5.858 -5.858,-15.355 0,-21.213 l 150,-150 c 5.857,-5.858 15.355,-5.858 21.213,0 5.858,5.858 5.858,15.355 0,21.213 l -150,150 C 323.678,360.536 319.839,362 316,362 Z"
             id="path952" />
        </g>
        <g
           id="g962">
          <path
             inkscape:connector-curvature="0"
             style="fill:#fea832"
             d="m 54.787,503.213 c -3.839,0 -7.678,-1.464 -10.606,-4.394 -5.858,-5.857 -5.858,-15.355 0,-21.213 L 185.394,336.392 c 5.857,-5.858 15.355,-5.858 21.213,0 5.858,5.858 5.858,15.355 0,21.213 L 65.394,498.82 c -2.929,2.929 -6.768,4.393 -10.607,4.393 z"
             id="path956" />
          <path
             inkscape:connector-curvature="0"
             style="fill:#fea832"
             d="m 457.213,503.213 c -3.839,0 -7.678,-1.464 -10.606,-4.394 L 305.394,357.606 c -5.858,-5.858 -5.858,-15.355 0,-21.213 5.858,-5.858 15.356,-5.858 21.213,0 L 467.82,477.607 c 5.858,5.858 5.858,15.355 0,21.213 -2.929,2.929 -6.769,4.393 -10.607,4.393 z"
             id="path958" />
          <path
             inkscape:connector-curvature="0"
             style="fill:#fea832"
             d="M 316,362 H 196 c -8.284,0 -15,-6.716 -15,-15 0,-8.284 6.716,-15 15,-15 h 120 c 8.284,0 15,6.716 15,15 0,8.284 -6.716,15 -15,15 z"
             id="path960" />
        </g>
        <path
           inkscape:connector-curvature="0"
           style="fill:#fedb41"
           d="M 436,512 H 76 C 51.187,512 31,491.813 31,467 V 197 c 0,-8.284 6.716,-15 15,-15 8.284,0 15,6.716 15,15 v 270 c 0,8.271 6.729,15 15,15 h 360 c 8.271,0 15,-6.729 15,-15 V 197 c 0,-8.284 6.716,-15 15,-15 8.284,0 15,6.716 15,15 v 270 c 0,24.813 -20.187,45 -45,45 z"
           id="path964" />
        <g
           id="g966" />
        <g
           id="g968" />
        <g
           id="g970" />
        <g
           id="g972" />
        <g
           id="g974" />
        <g
           id="g976" />
        <g
           id="g978" />
        <g
           id="g980" />
        <g
           id="g982" />
        <g
           id="g984" />
        <g
           id="g986" />
        <g
           id="g988" />
        <g
           id="g990" />
        <g
           id="g992" />
        <g
           id="g994" />
      </g>
      <g
         id="g934">
        <circle
           style="opacity:1;vector-effect:none;fill:none;fill-opacity:1;fill-rule:nonzero;stroke:#f03138;stroke-width:0.76300001;stroke-linecap:butt;stroke-linejoin:miter;stroke-miterlimit:4;stroke-dasharray:none;stroke-dashoffset:0;stroke-opacity:1"
           id="path1035"
           cx="12.692232"
           cy="270.54166"
           r="9.0026407" />
        <text
           xml:space="preserve"
           style="font-style:normal;font-variant:normal;font-weight:bold;font-stretch:normal;font-size:10.58333302px;line-height:1.25;font-family:'.Helvetica LT MM';-inkscape-font-specification:'.Helvetica LT MM Bold';letter-spacing:0px;word-spacing:0px;fill:#000000;fill-opacity:1;stroke:none;stroke-width:0.26458332"
           x="28.202724"
           y="263.71964"
           id="text849"><tspan
             sodipodi:role="line"
             id="tspan847"
             x="28.202724"
             y="263.71964"
             style="font-style:normal;font-variant:normal;font-weight:bold;font-stretch:normal;font-size:4.93888903px;font-family:sans-serif;-inkscape-font-specification:'sans-serif Bold';stroke-width:0.26458332">Jonasz Kubik</tspan></text>
        <text
           xml:space="preserve"
           style="font-style:normal;font-weight:normal;font-size:10.58333302px;line-height:1.25;font-family:sans-serif;letter-spacing:0px;word-spacing:0px;fill:#000000;fill-opacity:1;stroke:none;stroke-width:0.26458332"
           x="27.908461"
           y="272.59464"
           id="text857"><tspan
             sodipodi:role="line"
             x="27.908461"
             y="272.59464"
             style="font-style:normal;font-variant:normal;font-weight:normal;font-stretch:normal;font-size:5.64444447px;font-family:'Bradley Hand';-inkscape-font-specification:'Bradley Hand';stroke-width:0.26458332"
             id="tspan884">Thank you for your help and for creating such a   </tspan></text>
        <text
           xml:space="preserve"
           style="font-style:normal;font-weight:normal;font-size:10.58333302px;line-height:1.25;font-family:sans-serif;letter-spacing:0px;word-spacing:0px;fill:#000000;fill-opacity:1;stroke:none;stroke-width:0.26458332"
           x="27.925394"
           y="278.86398"
           id="text857-7"><tspan
             sodipodi:role="line"
             x="27.925394"
             y="278.86398"
             style="font-style:normal;font-variant:normal;font-weight:normal;font-stretch:normal;font-size:5.64444447px;font-family:'Bradley Hand';-inkscape-font-specification:'Bradley Hand';stroke-width:0.26458332"
             id="tspan884-3">great tool as pyKNEEr is :)</tspan></text>
      </g>
    </g>
  </g>
</svg>
